<?xml version="1.0" encoding="UTF-8"?>
<svg width="33px" height="41px" viewBox="0 0 33 41" version="1.1" xmlns="http://www.w3.org/2000/svg" xmlns:xlink="http://www.w3.org/1999/xlink">
    <title>BFA85679-8AF6-42F4-8C49-21C0BC3A4534</title>
    <g id="Page-1" stroke="none" stroke-width="1" fill="none" fill-rule="evenodd" opacity="0.388067336">
        <g id="Screener-New-1" transform="translate(-231.000000, -171.000000)" fill="#FFFFFF" fill-rule="nonzero">
            <g id="Group-2" transform="translate(173.000000, 171.000000)">
                <g id="Icon:-Create-New" transform="translate(58.000000, 0.000000)">
                    <path d="M32.44848,12.35152 L20.44848,0.35152 C20.22344,0.1264 19.91824,0 19.6,0 L1.2,0 C0.53728,0 0,0.53728 0,1.2 L0,39.76 C0,40.42272 0.53728,40.96 1.2,40.96 L31.6,40.96 C32.26272,40.96 32.8,40.42272 32.8,39.76 L32.8,13.2 C32.8,12.88168 32.67352,12.57648 32.44848,12.35152 Z M30.4,38.56 L2.4,38.56 L2.4,2.4 L19.10296,2.4 L30.4,13.69704 L30.4,38.56 Z" id="Shape"></path>
                    <path d="M20.4,19.28 L17.6,19.28 L17.6,16.48 C17.6,15.81728 17.06272,15.28 16.4,15.28 C15.73728,15.28 15.2,15.81728 15.2,16.48 L15.2,19.28 L12.4,19.28 C11.73728,19.28 11.2,19.81728 11.2,20.48 C11.2,21.14272 11.73728,21.68 12.4,21.68 L15.2,21.68 L15.2,24.48 C15.2,25.14272 15.73728,25.68 16.4,25.68 C17.06272,25.68 17.6,25.14272 17.6,24.48 L17.6,21.68 L20.4,21.68 C21.06272,21.68 21.6,21.14272 21.6,20.48 C21.6,19.81728 21.06272,19.28 20.4,19.28 Z" id="Path"></path>
                </g>
            </g>
        </g>
    </g>
</svg>